<?xml version="1.0" encoding="UTF-8"?>
<!DOCTYPE svg PUBLIC "-//W3C//DTD SVG 1.1//EN" "http://www.w3.org/Graphics/SVG/1.1/DTD/svg11.dtd">
<!-- Creator: CorelDRAW 2020 (64-Bit) -->
<svg xmlns="http://www.w3.org/2000/svg" xml:space="preserve" width="3.63109in" height="1.07871in" version="1.1" style="shape-rendering:geometricPrecision; text-rendering:geometricPrecision; image-rendering:optimizeQuality; fill-rule:evenodd; clip-rule:evenodd"
viewBox="0 0 580.6 172.48"
 xmlns:xlink="http://www.w3.org/1999/xlink"
 xmlns:xodm="http://www.corel.com/coreldraw/odm/2003">
 <defs>
  <style type="text/css">
   <![CDATA[
    .str1 {stroke:#332C2B;stroke-width:1.11;stroke-miterlimit:2.61313}
    .str0 {stroke:black;stroke-width:0.48;stroke-miterlimit:2.61313}
    .fil2 {fill:#C72B30}
    .fil1 {fill:black}
    .fil4 {fill:#332C2B;fill-rule:nonzero}
    .fil3 {fill:#C72B30;fill-rule:nonzero}
    .fil0 {fill:black;fill-rule:nonzero}
   ]]>
  </style>
 </defs>
 <g id="Layer_x0020_1">
  <metadata id="CorelCorpID_0Corel-Layer"/>
  <g id="_1893299006144">
   <path class="fil0 str0" d="M19.27 128.75l-5.06 12.73c-0.29,0.65 -0.44,1.05 -0.44,1.23 0,0.49 0.4,0.84 1.2,1.05l0 0.53 -7.09 0 0 -0.53c0.72,-0.14 1.09,-0.51 1.09,-1.1 0,-0.16 -0.15,-0.64 -0.45,-1.44l-6.32 -16.27c-0.31,-0.81 -0.6,-1.35 -0.85,-1.64 -0.25,-0.29 -0.62,-0.47 -1.11,-0.57l0 -0.53 7.65 0 0 0.53c-0.68,0.15 -1.02,0.47 -1.02,0.95 0,0.25 0.08,0.6 0.26,1.06l4.38 11.65 4.72 -11.72c0.2,-0.5 0.31,-0.84 0.31,-1 0,-0.5 -0.36,-0.82 -1.09,-0.95l0 -0.53 8.02 0 0 0.53c-0.73,0.19 -1.1,0.55 -1.1,1.05 0,0.18 0.09,0.5 0.28,0.97l4.48 11.65 4.35 -11.46c0.23,-0.57 0.34,-0.99 0.34,-1.27 0,-0.47 -0.39,-0.79 -1.16,-0.94l0 -0.53 7.57 0 0 0.53c-0.54,0.15 -0.91,0.34 -1.11,0.58 -0.2,0.24 -0.47,0.78 -0.81,1.63l-6.32 16.27c-0.3,0.78 -0.45,1.3 -0.45,1.55 0,0.53 0.38,0.86 1.15,0.99l0 0.53 -7.19 0 0 -0.53c0.75,-0.12 1.13,-0.48 1.13,-1.08 0,-0.2 -0.17,-0.69 -0.5,-1.46l-4.86 -12.47zm21.66 13.82l0 -18.67c0,-0.33 -0.08,-0.57 -0.23,-0.74 -0.15,-0.17 -0.41,-0.31 -0.8,-0.42l0 -0.53 6.88 0 0 0.53c-0.39,0.1 -0.65,0.23 -0.8,0.41 -0.15,0.18 -0.23,0.42 -0.23,0.75l0 18.67c0,0.34 0.08,0.59 0.23,0.77 0.15,0.18 0.42,0.31 0.79,0.41l0 0.53 -6.88 0 0 -0.53c0.39,-0.11 0.65,-0.25 0.8,-0.42 0.15,-0.17 0.23,-0.42 0.23,-0.76zm7.93 0.89l2.09 -5.59 0.49 0.18c-0.01,0.13 -0.02,0.24 -0.02,0.32 0,0.44 0.28,0.85 0.82,1.23 0.59,0.38 1.36,0.7 2.33,0.95 0.97,0.26 1.91,0.39 2.8,0.39 1.45,0 2.49,-0.33 3.15,-0.99 0.33,-0.34 0.56,-0.73 0.68,-1.19 0.12,-0.46 0.18,-1.15 0.18,-2.07l0 -12.77c0,-0.34 -0.08,-0.58 -0.23,-0.76 -0.15,-0.17 -0.41,-0.31 -0.8,-0.42l0 -0.53 6.88 0 0 0.53c-0.39,0.11 -0.65,0.25 -0.8,0.42 -0.15,0.17 -0.23,0.42 -0.23,0.76l0 13c0,2.13 -0.3,3.67 -0.89,4.62 -0.63,1 -1.56,1.78 -2.79,2.32 -1.23,0.55 -2.66,0.82 -4.3,0.82 -0.94,0 -1.75,-0.06 -2.44,-0.18 -0.69,-0.13 -1.81,-0.42 -3.38,-0.88 -0.97,-0.28 -1.66,-0.42 -2.07,-0.42 -0.36,0 -0.68,0.15 -0.99,0.45l-0.49 -0.19zm36.67 -4.84l-9.95 0 -1.5 3.12c-0.2,0.44 -0.31,0.77 -0.31,1.02 0,0.48 0.36,0.81 1.09,0.99l0 0.53 -7.3 0 0 -0.53c0.43,-0.09 0.76,-0.24 0.99,-0.45 0.23,-0.22 0.49,-0.63 0.77,-1.26l8.11 -16.95c0.26,-0.54 0.39,-0.97 0.39,-1.3 0,-0.5 -0.31,-0.85 -0.94,-1.06l0 -0.53 7.82 0 0 0.53c-0.64,0.18 -0.95,0.5 -0.95,0.95 0,0.31 0.1,0.67 0.3,1.06l8.4 17c0.36,0.72 0.67,1.21 0.94,1.48 0.27,0.26 0.63,0.43 1.08,0.52l0 0.53 -8.14 0 0 -0.53c0.71,-0.12 1.06,-0.45 1.06,-1 0,-0.23 -0.11,-0.57 -0.33,-1.01l-1.53 -3.12zm-1.38 -3.01l-3.54 -7.79 -3.61 7.79 7.15 0zm21.78 -0.58l0 7.54c0,0.33 0.08,0.58 0.23,0.76 0.15,0.17 0.42,0.31 0.8,0.42l0 0.53 -6.88 0 0 -0.53c0.38,-0.11 0.64,-0.25 0.79,-0.42 0.15,-0.18 0.23,-0.43 0.23,-0.76l0 -7.54 -7.13 -10.02c-0.61,-0.86 -1.09,-1.43 -1.44,-1.73 -0.35,-0.3 -0.77,-0.47 -1.25,-0.54l0 -0.53 8.73 0 0 0.53c-0.72,0.12 -1.09,0.45 -1.09,1 0,0.19 0.22,0.62 0.67,1.27l3.97 5.93 4.11 -5.93c0.44,-0.63 0.66,-1.06 0.66,-1.29 0,-0.24 -0.09,-0.46 -0.29,-0.63 -0.2,-0.18 -0.46,-0.29 -0.79,-0.35l0 -0.53 8.52 0 0 0.53c-0.49,0.07 -0.9,0.24 -1.25,0.54 -0.35,0.3 -0.83,0.87 -1.45,1.73l-7.13 10.02zm24.64 3.59l-9.95 0 -1.5 3.12c-0.2,0.44 -0.31,0.77 -0.31,1.02 0,0.48 0.36,0.81 1.09,0.99l0 0.53 -7.3 0 0 -0.53c0.43,-0.09 0.76,-0.24 0.99,-0.45 0.23,-0.22 0.49,-0.63 0.77,-1.26l8.12 -16.95c0.26,-0.54 0.39,-0.97 0.39,-1.3 0,-0.5 -0.31,-0.85 -0.94,-1.06l0 -0.53 7.82 0 0 0.53c-0.64,0.18 -0.95,0.5 -0.95,0.95 0,0.31 0.1,0.67 0.3,1.06l8.4 17c0.36,0.72 0.67,1.21 0.94,1.48 0.27,0.26 0.63,0.43 1.08,0.52l0 0.53 -8.14 0 0 -0.53c0.71,-0.12 1.07,-0.45 1.07,-1 0,-0.23 -0.11,-0.57 -0.33,-1.01l-1.53 -3.12zm-1.38 -3.01l-3.54 -7.79 -3.61 7.79 7.15 0zm43.23 -6.55l0 6.14 -0.52 0c-0.06,-0.54 -0.23,-0.81 -0.49,-0.81 -0.24,0 -0.59,0.16 -1.06,0.47 -0.47,0.31 -0.89,0.67 -1.25,1.07 -0.63,0.71 -1.08,1.47 -1.32,2.3 0.67,0.68 1.25,1.16 1.74,1.45 0.49,0.29 0.99,0.43 1.51,0.43 0.47,0 0.77,-0.26 0.87,-0.78l0.52 0 0 5.08c-0.3,-0.07 -1.25,-0.14 -2.85,-0.24 -0.61,-0.04 -1.37,-0.33 -2.28,-0.86 -0.91,-0.53 -1.69,-1.14 -2.36,-1.85 -2.19,2.15 -4.78,3.22 -7.79,3.22 -2.35,0 -4.3,-0.56 -5.85,-1.68 -1.76,-1.26 -2.64,-2.93 -2.64,-5 0,-2.77 1.64,-4.96 4.93,-6.57 -1.45,-1.27 -2.18,-2.66 -2.18,-4.18 0,-1.76 0.84,-3.16 2.52,-4.19 1.36,-0.83 2.93,-1.25 4.69,-1.25 1.98,0 3.72,0.5 5.2,1.49 1.45,0.97 2.18,2.32 2.18,4.04 0,0.96 -0.22,1.78 -0.64,2.44 -0.42,0.67 -1.19,1.39 -2.28,2.17 1.13,0.72 1.99,1.75 2.61,3.08 1.03,-1.8 2.05,-3.14 3.03,-4.02 0.99,-0.88 2.23,-1.54 3.7,-1.96zm-13.69 -3.97c-0.82,0 -1.53,0.2 -2.15,0.6 -0.78,0.51 -1.17,1.24 -1.17,2.18 0,0.8 0.31,1.46 0.94,1.99 0.63,0.52 1.42,0.79 2.38,0.79 0.82,0 1.54,-0.2 2.16,-0.6 0.78,-0.52 1.17,-1.23 1.17,-2.14 0,-0.83 -0.3,-1.51 -0.92,-2.02 -0.61,-0.52 -1.42,-0.78 -2.42,-0.79zm-1.15 8.31c-1.21,0 -2.26,0.35 -3.14,1.05 -0.88,0.71 -1.31,1.58 -1.31,2.65 0,1.11 0.43,2.02 1.29,2.74 0.86,0.71 1.96,1.07 3.29,1.07 1.38,0 2.56,-0.35 3.53,-1.04 0.97,-0.68 1.46,-1.49 1.46,-2.43 0,-0.45 -0.15,-0.93 -0.45,-1.47 -0.29,-0.54 -0.67,-0.98 -1.13,-1.34 -0.99,-0.81 -2.17,-1.22 -3.54,-1.23zm31.84 1.92l0 7.28c0,0.33 0.08,0.57 0.23,0.75 0.15,0.18 0.42,0.31 0.79,0.41l0 0.53 -6.88 0 0 -0.53c0.39,-0.11 0.65,-0.25 0.8,-0.42 0.15,-0.17 0.23,-0.42 0.23,-0.74l0 -18.67c0,-0.34 -0.08,-0.59 -0.23,-0.76 -0.15,-0.17 -0.41,-0.31 -0.8,-0.42l0 -0.53 13.77 0c1.61,0 2.88,0.11 3.82,0.33 0.94,0.22 1.78,0.58 2.5,1.11 0.75,0.55 1.32,1.27 1.75,2.16 0.42,0.93 0.63,1.91 0.63,2.94 0,1.49 -0.4,2.79 -1.2,3.92 -0.69,0.95 -1.6,1.64 -2.74,2.04 -1.14,0.4 -2.73,0.61 -4.76,0.61l-7.92 0zm0 -3.64l7.36 0c1.47,0 2.5,-0.15 3.09,-0.47 0.38,-0.2 0.68,-0.53 0.92,-0.98 0.23,-0.45 0.35,-0.94 0.35,-1.48 0,-0.52 -0.12,-1.01 -0.35,-1.46 -0.23,-0.45 -0.54,-0.77 -0.92,-0.98 -0.58,-0.31 -1.61,-0.47 -3.09,-0.47l-7.36 0 0 5.82zm33.22 6.95l-9.95 0 -1.5 3.12c-0.2,0.44 -0.31,0.77 -0.31,1.02 0,0.48 0.36,0.81 1.09,0.99l0 0.53 -7.3 0 0 -0.53c0.43,-0.09 0.76,-0.24 0.99,-0.45 0.23,-0.22 0.49,-0.63 0.77,-1.26l8.11 -16.95c0.26,-0.54 0.39,-0.97 0.39,-1.3 0,-0.5 -0.31,-0.85 -0.94,-1.06l0 -0.53 7.82 0 0 0.53c-0.64,0.18 -0.95,0.5 -0.95,0.95 0,0.31 0.1,0.67 0.3,1.06l8.4 17c0.36,0.72 0.67,1.21 0.94,1.48 0.27,0.26 0.63,0.43 1.08,0.52l0 0.53 -8.14 0 0 -0.53c0.71,-0.12 1.07,-0.45 1.07,-1 0,-0.23 -0.11,-0.57 -0.33,-1.01l-1.53 -3.12zm-1.38 -3.01l-3.54 -7.79 -3.61 7.79 7.15 0zm18.08 -0.33l0 7.31c0,0.33 0.08,0.57 0.23,0.75 0.15,0.18 0.42,0.31 0.79,0.41l0 0.53 -6.88 0 0 -0.53c0.39,-0.11 0.65,-0.25 0.8,-0.42 0.15,-0.17 0.23,-0.42 0.23,-0.74l0 -18.67c0,-0.34 -0.08,-0.59 -0.23,-0.76 -0.15,-0.17 -0.41,-0.31 -0.8,-0.42l0 -0.53 13.81 0c1.68,0 3.02,0.1 4,0.29 0.99,0.19 1.85,0.54 2.58,1.02 0.85,0.56 1.48,1.32 1.91,2.28 0.4,0.93 0.6,1.92 0.6,2.98 0,3.61 -2,5.71 -6,6.33l4.29 6.07c0.75,1.06 1.3,1.75 1.65,2.06 0.35,0.3 0.78,0.47 1.29,0.51l0 0.53 -7.98 0 0 -0.53c0.55,-0.09 0.82,-0.28 0.82,-0.58 0,-0.19 -0.25,-0.66 -0.76,-1.41l-4.5 -6.49 -5.85 0zm0 -3.64l7.44 0c1.1,0 1.88,-0.03 2.33,-0.1 0.45,-0.06 0.87,-0.2 1.25,-0.4 0.82,-0.44 1.23,-1.24 1.23,-2.39 0,-1.15 -0.41,-1.95 -1.23,-2.39 -0.39,-0.22 -0.8,-0.35 -1.24,-0.41 -0.44,-0.06 -1.22,-0.09 -2.34,-0.09l-7.44 0 0 5.79zm32.75 -5.79l0 16.73c0,0.34 0.08,0.59 0.23,0.76 0.15,0.17 0.41,0.31 0.8,0.42l0 0.53 -6.88 0 0 -0.53c0.39,-0.11 0.65,-0.25 0.8,-0.42 0.15,-0.17 0.23,-0.42 0.23,-0.76l0 -16.73 -6.82 0c-0.32,0 -0.57,0.07 -0.74,0.22 -0.17,0.14 -0.32,0.41 -0.42,0.81l-0.53 0 0 -5.69 0.53 0c0.12,0.39 0.26,0.66 0.42,0.81 0.17,0.15 0.41,0.22 0.73,0.22l18.45 0c0.33,0 0.58,-0.07 0.76,-0.22 0.17,-0.15 0.31,-0.41 0.42,-0.81l0.53 0 0 5.69 -0.53 0c-0.1,-0.39 -0.25,-0.66 -0.42,-0.81 -0.17,-0.15 -0.42,-0.22 -0.76,-0.22l-6.8 0zm16.16 3.32l0 13.4c0,0.34 0.08,0.59 0.23,0.76 0.15,0.17 0.41,0.31 0.8,0.42l0 0.53 -6.45 0 0 -0.53c0.39,-0.11 0.65,-0.25 0.8,-0.42 0.15,-0.17 0.23,-0.42 0.23,-0.76l0 -18.67c0,-0.33 -0.08,-0.57 -0.23,-0.74 -0.15,-0.17 -0.41,-0.31 -0.8,-0.42l0 -0.53 7.49 0 0 0.53c-0.46,0.12 -0.69,0.36 -0.69,0.74 0,0.26 0.15,0.54 0.45,0.86l12.22 12.65 0 -13.09c0,-0.33 -0.08,-0.57 -0.23,-0.74 -0.15,-0.17 -0.41,-0.31 -0.8,-0.42l0 -0.53 6.45 0 0 0.53c-0.39,0.1 -0.65,0.25 -0.8,0.42 -0.15,0.17 -0.23,0.42 -0.23,0.74l0 18.67c0,0.34 0.08,0.59 0.23,0.76 0.15,0.17 0.41,0.31 0.8,0.42l0 0.53 -6.94 0 0 -0.53c0.45,-0.1 0.68,-0.33 0.68,-0.69 0,-0.22 -0.27,-0.59 -0.79,-1.13l-12.41 -12.76zm29.27 5.42l0 6.06 14.16 0c0.33,0 0.57,-0.08 0.74,-0.23 0.17,-0.15 0.31,-0.41 0.42,-0.8l0.53 0 0 5.69 -0.53 0c-0.1,-0.39 -0.25,-0.65 -0.42,-0.8 -0.17,-0.15 -0.42,-0.23 -0.74,-0.23l-20.02 0 0 -0.53c0.39,-0.11 0.65,-0.25 0.8,-0.42 0.15,-0.17 0.23,-0.42 0.23,-0.76l0 -18.66c0,-0.34 -0.08,-0.59 -0.23,-0.76 -0.15,-0.17 -0.41,-0.31 -0.8,-0.42l0 -0.53 19.62 0c0.33,0 0.57,-0.08 0.75,-0.23 0.17,-0.15 0.31,-0.42 0.42,-0.8l0.53 0 0 5.69 -0.53 0c-0.1,-0.38 -0.25,-0.65 -0.42,-0.8 -0.17,-0.15 -0.42,-0.23 -0.74,-0.23l-13.77 0 0 5.23 8.94 0c0.32,0 0.57,-0.08 0.74,-0.23 0.17,-0.15 0.31,-0.41 0.42,-0.8l0.53 0 0 5.56 -0.53 0c-0.1,-0.38 -0.25,-0.64 -0.42,-0.79 -0.17,-0.15 -0.42,-0.23 -0.74,-0.23l-8.94 0zm25.15 0.69l0 7.31c0,0.33 0.08,0.57 0.23,0.75 0.15,0.18 0.42,0.31 0.79,0.41l0 0.53 -6.88 0 0 -0.53c0.39,-0.11 0.65,-0.25 0.8,-0.42 0.15,-0.17 0.23,-0.42 0.23,-0.74l0 -18.67c0,-0.34 -0.08,-0.59 -0.23,-0.76 -0.15,-0.17 -0.41,-0.31 -0.8,-0.42l0 -0.53 13.81 0c1.68,0 3.02,0.1 4,0.29 0.99,0.19 1.85,0.54 2.58,1.02 0.85,0.56 1.48,1.32 1.91,2.28 0.4,0.93 0.6,1.92 0.6,2.98 0,3.61 -2,5.71 -6,6.33l4.29 6.07c0.75,1.06 1.3,1.75 1.65,2.06 0.35,0.3 0.78,0.47 1.29,0.51l0 0.53 -7.98 0 0 -0.53c0.55,-0.09 0.82,-0.28 0.82,-0.58 0,-0.19 -0.25,-0.66 -0.76,-1.41l-4.5 -6.49 -5.85 0zm0 -3.64l7.44 0c1.1,0 1.88,-0.03 2.33,-0.1 0.45,-0.06 0.87,-0.2 1.25,-0.4 0.82,-0.44 1.23,-1.24 1.23,-2.39 0,-1.15 -0.41,-1.95 -1.23,-2.39 -0.39,-0.22 -0.8,-0.35 -1.24,-0.41 -0.44,-0.06 -1.22,-0.09 -2.34,-0.09l-7.44 0 0 5.79zm41.43 -7.58l-2.63 5.19 -0.45 -0.26c0.01,-0.11 0.02,-0.19 0.02,-0.26 0,-0.36 -0.31,-0.76 -0.94,-1.18 -1.92,-1.34 -4.17,-2 -6.76,-2 -1.14,0 -2.15,0.14 -3.03,0.42 -0.63,0.22 -1.15,0.54 -1.54,0.98 -0.39,0.43 -0.59,0.9 -0.59,1.41 0,0.83 0.5,1.4 1.5,1.7 0.52,0.15 1.63,0.31 3.33,0.49l2.54 0.26c1.51,0.16 2.73,0.38 3.66,0.66 0.93,0.28 1.75,0.67 2.48,1.18 0.73,0.53 1.31,1.22 1.74,2.08 0.42,0.87 0.64,1.79 0.64,2.77 0,1.55 -0.5,2.93 -1.5,4.14 -0.9,1.1 -2.31,1.91 -4.22,2.44 -1.42,0.4 -2.95,0.6 -4.57,0.6 -2.92,0 -5.8,-0.7 -8.64,-2.1 -0.6,-0.28 -0.96,-0.42 -1.08,-0.42 -0.14,0 -0.36,0.12 -0.66,0.35l-0.47 -0.24 2.39 -5.41 0.47 0.23c0,0.09 0,0.17 0,0.21 0,0.49 0.23,0.93 0.69,1.34 0.7,0.62 1.79,1.16 3.25,1.62 1.47,0.45 2.86,0.68 4.17,0.68 1.43,0 2.66,-0.24 3.67,-0.73 0.56,-0.27 1.01,-0.63 1.34,-1.08 0.34,-0.45 0.5,-0.92 0.5,-1.4 0,-0.73 -0.39,-1.26 -1.18,-1.57 -0.55,-0.22 -1.66,-0.41 -3.33,-0.6l-2.49 -0.26c-1.67,-0.18 -2.85,-0.34 -3.54,-0.5 -0.69,-0.15 -1.38,-0.41 -2.07,-0.76 -0.98,-0.49 -1.75,-1.21 -2.31,-2.18 -0.51,-0.88 -0.76,-1.88 -0.76,-3.01 0,-1.87 0.64,-3.41 1.93,-4.63 1.68,-1.61 4.21,-2.42 7.58,-2.42 1.41,0 2.73,0.14 3.94,0.43 1.22,0.29 2.74,0.81 4.56,1.58 0.62,0.25 1,0.37 1.15,0.37 0.23,0 0.49,-0.12 0.79,-0.37l0.45 0.24zm17.44 16.58l13.55 0c0.34,0 0.59,-0.08 0.76,-0.23 0.17,-0.15 0.31,-0.41 0.42,-0.8l0.53 0 0 5.69 -0.53 0c-0.11,-0.39 -0.25,-0.65 -0.42,-0.8 -0.17,-0.15 -0.42,-0.23 -0.76,-0.23l-19.41 0 0 -0.53c0.39,-0.11 0.65,-0.25 0.8,-0.42 0.15,-0.17 0.23,-0.42 0.23,-0.76l0 -18.66c0,-0.34 -0.08,-0.59 -0.23,-0.76 -0.15,-0.17 -0.41,-0.31 -0.8,-0.42l0 -0.53 6.88 0 0 0.53c-0.39,0.1 -0.65,0.23 -0.8,0.41 -0.15,0.18 -0.23,0.43 -0.23,0.77l0 16.73zm34.86 -2.02l-9.95 0 -1.5 3.12c-0.2,0.44 -0.31,0.77 -0.31,1.02 0,0.48 0.36,0.81 1.09,0.99l0 0.53 -7.3 0 0 -0.53c0.43,-0.09 0.76,-0.24 0.99,-0.45 0.23,-0.22 0.49,-0.63 0.77,-1.26l8.11 -16.95c0.26,-0.54 0.39,-0.97 0.39,-1.3 0,-0.5 -0.31,-0.85 -0.94,-1.06l0 -0.53 7.82 0 0 0.53c-0.64,0.18 -0.95,0.5 -0.95,0.95 0,0.31 0.1,0.67 0.3,1.06l8.4 17c0.36,0.72 0.67,1.21 0.94,1.48 0.27,0.26 0.63,0.43 1.08,0.52l0 0.53 -8.14 0 0 -0.53c0.71,-0.12 1.06,-0.45 1.06,-1 0,-0.23 -0.11,-0.57 -0.33,-1.01l-1.53 -3.12zm-1.38 -3.01l-3.54 -7.79 -3.61 7.79 7.15 0zm26.75 -6.86l-5.06 12.73c-0.29,0.65 -0.44,1.05 -0.44,1.23 0,0.49 0.4,0.84 1.2,1.05l0 0.53 -7.09 0 0 -0.53c0.72,-0.14 1.09,-0.51 1.09,-1.1 0,-0.16 -0.15,-0.64 -0.45,-1.44l-6.32 -16.27c-0.31,-0.81 -0.6,-1.35 -0.85,-1.64 -0.25,-0.29 -0.62,-0.47 -1.11,-0.57l0 -0.53 7.65 0 0 0.53c-0.68,0.15 -1.01,0.47 -1.01,0.95 0,0.25 0.08,0.6 0.26,1.06l4.38 11.65 4.72 -11.72c0.2,-0.5 0.31,-0.84 0.31,-1 0,-0.5 -0.36,-0.82 -1.09,-0.95l0 -0.53 8.02 0 0 0.53c-0.73,0.19 -1.1,0.55 -1.1,1.05 0,0.18 0.09,0.5 0.28,0.97l4.48 11.65 4.35 -11.46c0.23,-0.57 0.34,-0.99 0.34,-1.27 0,-0.47 -0.39,-0.79 -1.16,-0.94l0 -0.53 7.57 0 0 0.53c-0.54,0.15 -0.91,0.34 -1.11,0.58 -0.2,0.24 -0.47,0.78 -0.81,1.63l-6.32 16.27c-0.3,0.78 -0.45,1.3 -0.45,1.55 0,0.53 0.38,0.86 1.15,0.99l0 0.53 -7.19 0 0 -0.53c0.75,-0.12 1.13,-0.48 1.13,-1.08 0,-0.2 -0.17,-0.69 -0.5,-1.46l-4.86 -12.47zm34.77 5.87l0 7.95c0,0.34 0.08,0.59 0.23,0.77 0.15,0.18 0.42,0.31 0.79,0.41l0 0.53 -6.88 0 0 -0.53c0.39,-0.11 0.65,-0.25 0.8,-0.42 0.15,-0.17 0.23,-0.42 0.23,-0.76l0 -18.66c0,-0.34 -0.08,-0.59 -0.23,-0.76 -0.15,-0.17 -0.41,-0.31 -0.8,-0.42l0 -0.53 19.52 0c0.33,0 0.57,-0.07 0.74,-0.22 0.17,-0.15 0.31,-0.41 0.42,-0.81l0.53 0 0 5.69 -0.53 0c-0.11,-0.39 -0.25,-0.66 -0.42,-0.81 -0.17,-0.15 -0.42,-0.22 -0.74,-0.22l-13.66 0 0 5.26 8.92 0c0.33,0 0.58,-0.08 0.76,-0.23 0.17,-0.15 0.31,-0.42 0.42,-0.8l0.53 0 0 5.56 -0.53 0c-0.1,-0.38 -0.25,-0.65 -0.42,-0.8 -0.17,-0.15 -0.43,-0.23 -0.76,-0.23l-8.92 0zm19.25 7.95l0 -18.67c0,-0.33 -0.08,-0.57 -0.23,-0.74 -0.15,-0.17 -0.41,-0.31 -0.8,-0.42l0 -0.53 6.88 0 0 0.53c-0.39,0.1 -0.65,0.23 -0.8,0.41 -0.15,0.18 -0.23,0.42 -0.23,0.75l0 18.67c0,0.34 0.08,0.59 0.23,0.77 0.15,0.18 0.42,0.31 0.79,0.41l0 0.53 -6.88 0 0 -0.53c0.39,-0.11 0.65,-0.25 0.8,-0.42 0.15,-0.17 0.23,-0.42 0.23,-0.76zm15.68 -7.29l0 7.31c0,0.33 0.08,0.57 0.23,0.75 0.15,0.18 0.42,0.31 0.79,0.41l0 0.53 -6.88 0 0 -0.53c0.39,-0.11 0.65,-0.25 0.8,-0.42 0.15,-0.17 0.23,-0.42 0.23,-0.74l0 -18.67c0,-0.34 -0.08,-0.59 -0.23,-0.76 -0.15,-0.17 -0.41,-0.31 -0.8,-0.42l0 -0.53 13.81 0c1.68,0 3.02,0.1 4,0.29 0.99,0.19 1.85,0.54 2.58,1.02 0.85,0.56 1.48,1.32 1.91,2.28 0.4,0.93 0.6,1.92 0.6,2.98 0,3.61 -2,5.71 -6,6.33l4.29 6.07c0.75,1.06 1.3,1.75 1.65,2.06 0.35,0.3 0.78,0.47 1.28,0.51l0 0.53 -7.98 0 0 -0.53c0.55,-0.09 0.82,-0.28 0.82,-0.58 0,-0.19 -0.25,-0.66 -0.76,-1.41l-4.5 -6.49 -5.85 0zm0 -3.64l7.44 0c1.1,0 1.88,-0.03 2.33,-0.1 0.45,-0.06 0.87,-0.2 1.25,-0.4 0.82,-0.44 1.23,-1.24 1.23,-2.39 0,-1.15 -0.41,-1.95 -1.23,-2.39 -0.39,-0.22 -0.8,-0.35 -1.24,-0.41 -0.44,-0.06 -1.22,-0.09 -2.34,-0.09l-7.44 0 0 5.79zm34.46 12.64l-8.13 -15.25 0 13.54c0,0.34 0.08,0.59 0.23,0.76 0.15,0.17 0.41,0.31 0.8,0.42l0 0.53 -6.45 0 0 -0.53c0.39,-0.11 0.65,-0.25 0.8,-0.42 0.15,-0.17 0.23,-0.42 0.23,-0.76l0 -18.67c0,-0.33 -0.08,-0.57 -0.23,-0.74 -0.15,-0.17 -0.41,-0.31 -0.8,-0.42l0 -0.53 8.48 0 0 0.53c-0.51,0.13 -0.76,0.42 -0.76,0.89 0,0.21 0.08,0.46 0.23,0.74l6 11.36 6.08 -11.17c0.27,-0.5 0.4,-0.85 0.4,-1.08 0,-0.44 -0.27,-0.69 -0.81,-0.74l0 -0.53 8.34 0 0 0.53c-0.39,0.1 -0.65,0.25 -0.8,0.42 -0.15,0.17 -0.23,0.42 -0.23,0.74l0 18.67c0,0.34 0.08,0.59 0.23,0.76 0.15,0.17 0.41,0.31 0.8,0.42l0 0.53 -6.88 0 0 -0.53c0.38,-0.1 0.64,-0.23 0.79,-0.41 0.15,-0.18 0.23,-0.43 0.23,-0.77l0 -13.54 -8.56 15.25z"/>
   <path class="fil0 str0" d="M90.63 168.49l-5.84 -10.96 0 9.73c0,0.24 0.06,0.42 0.16,0.55 0.11,0.12 0.3,0.22 0.57,0.3l0 0.38 -4.64 0 0 -0.38c0.28,-0.08 0.47,-0.18 0.57,-0.3 0.11,-0.12 0.16,-0.31 0.16,-0.55l0 -13.41c0,-0.23 -0.06,-0.41 -0.16,-0.54 -0.11,-0.12 -0.3,-0.23 -0.57,-0.3l0 -0.38 6.09 0 0 0.38c-0.36,0.09 -0.55,0.31 -0.55,0.64 0,0.15 0.06,0.33 0.16,0.54l4.31 8.16 4.37 -8.02c0.19,-0.36 0.29,-0.61 0.29,-0.78 0,-0.32 -0.19,-0.5 -0.58,-0.54l0 -0.38 5.99 0 0 0.38c-0.28,0.08 -0.47,0.18 -0.57,0.3 -0.11,0.12 -0.16,0.3 -0.16,0.54l0 13.41c0,0.24 0.06,0.42 0.16,0.55 0.11,0.12 0.3,0.22 0.57,0.3l0 0.38 -4.94 0 0 -0.38c0.27,-0.07 0.46,-0.17 0.57,-0.3 0.11,-0.13 0.17,-0.31 0.17,-0.55l0 -9.73 -6.15 10.96zm21.95 -16.14c2.77,0 4.96,0.75 6.58,2.24 1.71,1.57 2.57,3.59 2.57,6.07 0,1.52 -0.41,2.94 -1.23,4.26 -1.61,2.57 -4.24,3.86 -7.89,3.86 -2.75,0 -4.93,-0.75 -6.55,-2.24 -0.87,-0.8 -1.53,-1.76 -1.97,-2.87 -0.4,-0.98 -0.59,-2.02 -0.59,-3.11 0,-1.59 0.41,-3.04 1.22,-4.36 1.56,-2.52 4.18,-3.8 7.87,-3.85zm0.01 2.69c-1.52,0 -2.78,0.45 -3.79,1.35 -1.2,1.06 -1.79,2.45 -1.79,4.18 0,1.72 0.6,3.11 1.79,4.18 1.01,0.9 2.28,1.35 3.81,1.35 1.53,0 2.79,-0.45 3.8,-1.35 0.6,-0.53 1.06,-1.19 1.37,-1.97 0.28,-0.69 0.42,-1.4 0.42,-2.14 0,-1.8 -0.6,-3.22 -1.79,-4.25 -1.02,-0.89 -2.29,-1.34 -3.82,-1.35zm15.83 6.99l0 5.25c0,0.23 0.06,0.41 0.17,0.54 0.11,0.13 0.3,0.23 0.57,0.3l0 0.38 -4.95 0 0 -0.38c0.28,-0.08 0.47,-0.18 0.57,-0.3 0.11,-0.12 0.16,-0.3 0.16,-0.53l0 -13.41c0,-0.24 -0.06,-0.42 -0.16,-0.55 -0.11,-0.12 -0.3,-0.23 -0.57,-0.3l0 -0.38 9.92 0c1.21,0 2.17,0.07 2.88,0.21 0.71,0.14 1.33,0.38 1.85,0.73 0.61,0.4 1.07,0.95 1.37,1.64 0.29,0.67 0.43,1.38 0.43,2.14 0,2.59 -1.44,4.11 -4.31,4.55l3.08 4.36c0.54,0.76 0.93,1.26 1.19,1.48 0.25,0.22 0.56,0.34 0.92,0.36l0 0.38 -5.73 0 0 -0.38c0.39,-0.06 0.59,-0.2 0.59,-0.42 0,-0.14 -0.18,-0.48 -0.55,-1.01l-3.23 -4.66 -4.2 0zm0 -2.61l5.35 0c0.79,0 1.35,-0.02 1.67,-0.07 0.32,-0.04 0.63,-0.14 0.9,-0.29 0.59,-0.32 0.88,-0.89 0.88,-1.72 0,-0.83 -0.29,-1.4 -0.88,-1.72 -0.28,-0.15 -0.58,-0.25 -0.89,-0.3 -0.31,-0.04 -0.88,-0.06 -1.68,-0.06l-5.35 0 0 4.16zm26.57 5.02l-7.15 0 -1.08 2.24c-0.15,0.31 -0.22,0.55 -0.22,0.73 0,0.34 0.26,0.58 0.78,0.71l0 0.38 -5.24 0 0 -0.38c0.31,-0.06 0.55,-0.17 0.71,-0.32 0.16,-0.15 0.35,-0.46 0.56,-0.9l5.83 -12.17c0.19,-0.39 0.28,-0.7 0.28,-0.93 0,-0.36 -0.22,-0.61 -0.67,-0.76l0 -0.38 5.62 0 0 0.38c-0.46,0.13 -0.68,0.36 -0.68,0.69 0,0.22 0.07,0.48 0.22,0.76l6.03 12.21c0.26,0.52 0.48,0.87 0.67,1.06 0.19,0.19 0.45,0.31 0.78,0.38l0 0.38 -5.85 0 0 -0.38c0.51,-0.09 0.76,-0.32 0.76,-0.72 0,-0.17 -0.08,-0.41 -0.23,-0.73l-1.1 -2.24zm-0.99 -2.16l-2.54 -5.6 -2.59 5.6 5.13 0zm12.98 3.61l9.73 0c0.24,0 0.42,-0.06 0.55,-0.16 0.12,-0.11 0.23,-0.3 0.3,-0.57l0.38 0 0 4.09 -0.38 0c-0.07,-0.28 -0.18,-0.47 -0.3,-0.57 -0.12,-0.11 -0.31,-0.16 -0.55,-0.16l-13.94 0 0 -0.38c0.28,-0.08 0.47,-0.18 0.57,-0.3 0.11,-0.12 0.16,-0.31 0.16,-0.55l0 -13.4c0,-0.24 -0.06,-0.42 -0.16,-0.55 -0.11,-0.12 -0.3,-0.23 -0.57,-0.3l0 -0.38 4.95 0 0 0.38c-0.28,0.07 -0.47,0.17 -0.57,0.3 -0.11,0.13 -0.16,0.31 -0.16,0.55l0 12.01zm13.35 1.39l0 -13.41c0,-0.23 -0.06,-0.41 -0.16,-0.54 -0.11,-0.12 -0.3,-0.23 -0.57,-0.3l0 -0.38 4.94 0 0 0.38c-0.28,0.07 -0.47,0.17 -0.57,0.3 -0.11,0.13 -0.16,0.31 -0.16,0.54l0 13.41c0,0.24 0.06,0.42 0.17,0.55 0.11,0.13 0.3,0.23 0.57,0.3l0 0.38 -4.94 0 0 -0.38c0.28,-0.08 0.47,-0.18 0.57,-0.3 0.11,-0.12 0.16,-0.31 0.16,-0.55zm15.37 -12.01l0 12.01c0,0.24 0.06,0.42 0.16,0.55 0.11,0.12 0.3,0.22 0.57,0.3l0 0.38 -4.95 0 0 -0.38c0.28,-0.08 0.47,-0.18 0.58,-0.3 0.11,-0.12 0.16,-0.31 0.16,-0.55l0 -12.01 -4.9 0c-0.23,0 -0.41,0.05 -0.53,0.16 -0.12,0.1 -0.23,0.3 -0.3,0.58l-0.38 0 0 -4.09 0.38 0c0.08,0.28 0.19,0.47 0.3,0.58 0.12,0.11 0.3,0.16 0.53,0.16l13.25 0c0.24,0 0.42,-0.05 0.54,-0.16 0.12,-0.11 0.23,-0.3 0.3,-0.58l0.38 0 0 4.09 -0.38 0c-0.08,-0.28 -0.18,-0.48 -0.3,-0.58 -0.12,-0.11 -0.31,-0.16 -0.54,-0.16l-4.89 0zm17.61 6.6l0 5.42c0,0.24 0.06,0.42 0.16,0.55 0.11,0.12 0.3,0.22 0.57,0.3l0 0.38 -4.94 0 0 -0.38c0.27,-0.08 0.46,-0.18 0.57,-0.3 0.11,-0.13 0.17,-0.31 0.17,-0.55l0 -5.42 -5.12 -7.2c-0.44,-0.62 -0.78,-1.03 -1.04,-1.24 -0.25,-0.21 -0.55,-0.34 -0.9,-0.39l0 -0.38 6.27 0 0 0.38c-0.52,0.08 -0.78,0.33 -0.78,0.72 0,0.14 0.16,0.44 0.48,0.92l2.85 4.26 2.95 -4.26c0.32,-0.46 0.48,-0.76 0.48,-0.93 0,-0.17 -0.07,-0.33 -0.21,-0.46 -0.14,-0.13 -0.33,-0.21 -0.57,-0.25l0 -0.38 6.12 0 0 0.38c-0.35,0.05 -0.65,0.18 -0.9,0.39 -0.25,0.21 -0.6,0.63 -1.04,1.24l-5.12 7.2zm6.8 9.56c0.63,-0.42 1.09,-0.83 1.37,-1.22 0.28,-0.4 0.48,-0.91 0.59,-1.54 -0.37,0.08 -0.64,0.13 -0.81,0.13 -0.51,0 -0.92,-0.18 -1.23,-0.54 -0.31,-0.35 -0.46,-0.82 -0.46,-1.39 0,-0.57 0.16,-1.03 0.47,-1.37 0.31,-0.34 0.72,-0.51 1.24,-0.51 0.7,0 1.23,0.29 1.6,0.86 0.33,0.52 0.49,1.14 0.49,1.86 0,1.7 -0.9,3.19 -2.71,4.46l-0.55 -0.74zm16.59 -5.54l9.73 0c0.24,0 0.42,-0.06 0.55,-0.16 0.12,-0.11 0.23,-0.3 0.3,-0.57l0.38 0 0 4.09 -0.38 0c-0.08,-0.28 -0.18,-0.47 -0.3,-0.57 -0.12,-0.11 -0.31,-0.16 -0.55,-0.16l-13.94 0 0 -0.38c0.28,-0.08 0.47,-0.18 0.57,-0.3 0.11,-0.12 0.16,-0.31 0.16,-0.55l0 -13.4c0,-0.24 -0.06,-0.42 -0.16,-0.55 -0.11,-0.12 -0.3,-0.23 -0.57,-0.3l0 -0.38 4.95 0 0 0.38c-0.28,0.07 -0.47,0.17 -0.57,0.3 -0.11,0.13 -0.16,0.31 -0.16,0.55l0 12.01zm21.07 -13.53c2.77,0 4.96,0.75 6.58,2.24 1.71,1.57 2.57,3.59 2.57,6.07 0,1.52 -0.41,2.94 -1.23,4.26 -1.61,2.57 -4.24,3.86 -7.89,3.86 -2.75,0 -4.93,-0.75 -6.55,-2.24 -0.87,-0.8 -1.53,-1.76 -1.97,-2.87 -0.4,-0.98 -0.59,-2.02 -0.59,-3.11 0,-1.59 0.41,-3.04 1.22,-4.36 1.56,-2.52 4.18,-3.8 7.87,-3.85zm0.01 2.69c-1.52,0 -2.78,0.45 -3.79,1.35 -1.2,1.06 -1.79,2.45 -1.79,4.18 0,1.72 0.6,3.11 1.79,4.18 1.01,0.9 2.28,1.35 3.81,1.35 1.53,0 2.79,-0.45 3.8,-1.35 0.6,-0.53 1.06,-1.19 1.37,-1.97 0.28,-0.69 0.42,-1.4 0.42,-2.14 0,-1.8 -0.6,-3.22 -1.79,-4.25 -1.02,-0.89 -2.29,-1.34 -3.82,-1.35zm19.3 6.81l0 5.42c0,0.24 0.06,0.42 0.16,0.55 0.11,0.12 0.3,0.22 0.57,0.3l0 0.38 -4.94 0 0 -0.38c0.27,-0.08 0.46,-0.18 0.57,-0.3 0.11,-0.13 0.17,-0.31 0.17,-0.55l0 -5.42 -5.12 -7.2c-0.44,-0.62 -0.78,-1.03 -1.04,-1.24 -0.25,-0.21 -0.55,-0.34 -0.9,-0.39l0 -0.38 6.27 0 0 0.38c-0.52,0.08 -0.78,0.33 -0.78,0.72 0,0.14 0.16,0.44 0.48,0.92l2.85 4.26 2.95 -4.26c0.32,-0.46 0.48,-0.76 0.48,-0.93 0,-0.17 -0.07,-0.33 -0.21,-0.46 -0.14,-0.13 -0.33,-0.21 -0.57,-0.25l0 -0.38 6.12 0 0 0.38c-0.35,0.05 -0.65,0.18 -0.9,0.39 -0.25,0.21 -0.6,0.63 -1.04,1.24l-5.12 7.2zm17.7 2.58l-7.15 0 -1.08 2.24c-0.15,0.31 -0.22,0.55 -0.22,0.73 0,0.34 0.26,0.58 0.78,0.71l0 0.38 -5.24 0 0 -0.38c0.31,-0.06 0.55,-0.17 0.71,-0.32 0.16,-0.15 0.35,-0.46 0.55,-0.9l5.83 -12.17c0.19,-0.39 0.28,-0.7 0.28,-0.93 0,-0.36 -0.22,-0.61 -0.67,-0.76l0 -0.38 5.62 0 0 0.38c-0.46,0.13 -0.68,0.36 -0.68,0.69 0,0.22 0.07,0.48 0.22,0.76l6.03 12.21c0.26,0.52 0.48,0.87 0.67,1.06 0.19,0.19 0.45,0.31 0.78,0.38l0 0.38 -5.85 0 0 -0.38c0.51,-0.09 0.76,-0.32 0.76,-0.72 0,-0.17 -0.08,-0.41 -0.23,-0.73l-1.1 -2.24zm-0.99 -2.16l-2.54 -5.6 -2.59 5.6 5.13 0zm12.98 3.61l9.73 0c0.24,0 0.42,-0.06 0.55,-0.16 0.12,-0.11 0.23,-0.3 0.3,-0.57l0.38 0 0 4.09 -0.38 0c-0.08,-0.28 -0.18,-0.47 -0.3,-0.57 -0.12,-0.11 -0.3,-0.16 -0.55,-0.16l-13.94 0 0 -0.38c0.28,-0.08 0.47,-0.18 0.57,-0.3 0.11,-0.12 0.16,-0.31 0.16,-0.55l0 -13.4c0,-0.24 -0.06,-0.42 -0.16,-0.55 -0.11,-0.12 -0.3,-0.23 -0.57,-0.3l0 -0.38 4.94 0 0 0.38c-0.28,0.07 -0.47,0.17 -0.57,0.3 -0.11,0.13 -0.16,0.31 -0.16,0.55l0 12.01zm19.09 -10.63l0 12.01c0,0.24 0.06,0.42 0.16,0.55 0.11,0.12 0.3,0.22 0.57,0.3l0 0.38 -4.95 0 0 -0.38c0.28,-0.08 0.47,-0.18 0.58,-0.3 0.11,-0.12 0.16,-0.31 0.16,-0.55l0 -12.01 -4.9 0c-0.23,0 -0.41,0.05 -0.53,0.16 -0.12,0.1 -0.23,0.3 -0.3,0.58l-0.38 0 0 -4.09 0.38 0c0.08,0.28 0.19,0.47 0.3,0.58 0.12,0.11 0.3,0.16 0.53,0.16l13.25 0c0.24,0 0.42,-0.05 0.54,-0.16 0.12,-0.11 0.23,-0.3 0.3,-0.58l0.38 0 0 4.09 -0.38 0c-0.08,-0.28 -0.18,-0.48 -0.3,-0.58 -0.12,-0.11 -0.31,-0.16 -0.54,-0.16l-4.89 0zm17.61 6.6l0 5.42c0,0.24 0.06,0.42 0.16,0.55 0.11,0.12 0.3,0.22 0.57,0.3l0 0.38 -4.94 0 0 -0.38c0.27,-0.08 0.46,-0.18 0.57,-0.3 0.11,-0.13 0.17,-0.31 0.17,-0.55l0 -5.42 -5.12 -7.2c-0.44,-0.62 -0.78,-1.03 -1.04,-1.24 -0.25,-0.21 -0.55,-0.34 -0.9,-0.39l0 -0.38 6.27 0 0 0.38c-0.52,0.08 -0.78,0.33 -0.78,0.72 0,0.14 0.16,0.44 0.48,0.92l2.85 4.26 2.95 -4.26c0.32,-0.46 0.48,-0.76 0.48,-0.93 0,-0.17 -0.07,-0.33 -0.21,-0.46 -0.14,-0.13 -0.33,-0.21 -0.57,-0.25l0 -0.38 6.12 0 0 0.38c-0.35,0.05 -0.65,0.18 -0.9,0.39 -0.25,0.21 -0.6,0.63 -1.04,1.24l-5.12 7.2zm6.8 9.56c0.63,-0.42 1.09,-0.83 1.37,-1.22 0.28,-0.4 0.48,-0.91 0.59,-1.54 -0.37,0.08 -0.64,0.13 -0.81,0.13 -0.51,0 -0.92,-0.18 -1.23,-0.54 -0.31,-0.35 -0.46,-0.82 -0.46,-1.39 0,-0.57 0.16,-1.03 0.47,-1.37 0.31,-0.34 0.72,-0.51 1.24,-0.51 0.7,0 1.23,0.29 1.6,0.86 0.32,0.52 0.49,1.14 0.49,1.86 0,1.7 -0.9,3.19 -2.71,4.46l-0.55 -0.74zm7.17 -4.15l0 -13.41c0,-0.23 -0.06,-0.41 -0.16,-0.54 -0.11,-0.12 -0.3,-0.23 -0.57,-0.3l0 -0.38 4.94 0 0 0.38c-0.28,0.07 -0.47,0.17 -0.57,0.3 -0.11,0.13 -0.16,0.31 -0.16,0.54l0 13.41c0,0.24 0.06,0.42 0.17,0.55 0.11,0.13 0.3,0.23 0.57,0.3l0 0.38 -4.94 0 0 -0.38c0.28,-0.08 0.47,-0.18 0.57,-0.3 0.11,-0.12 0.16,-0.31 0.16,-0.55zm10.95 -9.63l0 9.63c0,0.24 0.06,0.42 0.16,0.55 0.11,0.12 0.3,0.22 0.57,0.3l0 0.38 -4.64 0 0 -0.38c0.28,-0.08 0.47,-0.18 0.57,-0.3 0.11,-0.12 0.16,-0.31 0.16,-0.55l0 -13.41c0,-0.23 -0.06,-0.41 -0.16,-0.54 -0.11,-0.12 -0.3,-0.23 -0.57,-0.3l0 -0.38 5.38 0 0 0.38c-0.33,0.08 -0.5,0.26 -0.5,0.54 0,0.19 0.11,0.39 0.32,0.61l8.78 9.09 0 -9.4c0,-0.23 -0.06,-0.41 -0.16,-0.54 -0.11,-0.12 -0.3,-0.23 -0.57,-0.3l0 -0.38 4.64 0 0 0.38c-0.28,0.08 -0.47,0.18 -0.57,0.3 -0.11,0.12 -0.16,0.3 -0.16,0.54l0 13.41c0,0.24 0.06,0.42 0.16,0.55 0.11,0.12 0.3,0.22 0.57,0.3l0 0.38 -4.98 0 0 -0.38c0.32,-0.07 0.49,-0.24 0.49,-0.5 0,-0.15 -0.19,-0.42 -0.57,-0.81l-8.92 -9.17zm25.14 -2.39l0 12.01c0,0.24 0.06,0.42 0.16,0.55 0.11,0.12 0.3,0.22 0.57,0.3l0 0.38 -4.94 0 0 -0.38c0.28,-0.08 0.47,-0.18 0.57,-0.3 0.11,-0.12 0.16,-0.31 0.16,-0.55l0 -12.01 -4.9 0c-0.23,0 -0.41,0.05 -0.53,0.16 -0.12,0.1 -0.23,0.3 -0.3,0.58l-0.38 0 0 -4.09 0.38 0c0.08,0.28 0.19,0.47 0.3,0.58 0.12,0.11 0.3,0.16 0.53,0.16l13.25 0c0.24,0 0.42,-0.05 0.54,-0.16 0.12,-0.11 0.23,-0.3 0.3,-0.58l0.38 0 0 4.09 -0.38 0c-0.08,-0.28 -0.18,-0.48 -0.3,-0.58 -0.12,-0.11 -0.31,-0.16 -0.54,-0.16l-4.89 0zm11.92 6.28l0 4.35 10.17 0c0.23,0 0.41,-0.06 0.54,-0.16 0.12,-0.11 0.23,-0.3 0.3,-0.57l0.38 0 0 4.09 -0.38 0c-0.07,-0.28 -0.18,-0.47 -0.3,-0.57 -0.12,-0.11 -0.3,-0.16 -0.54,-0.16l-14.38 0 0 -0.38c0.28,-0.08 0.47,-0.18 0.57,-0.3 0.11,-0.12 0.16,-0.31 0.16,-0.55l0 -13.4c0,-0.24 -0.06,-0.42 -0.16,-0.55 -0.11,-0.12 -0.3,-0.23 -0.57,-0.3l0 -0.38 14.09 0c0.23,0 0.41,-0.06 0.54,-0.16 0.12,-0.11 0.23,-0.3 0.3,-0.57l0.38 0 0 4.09 -0.38 0c-0.07,-0.27 -0.18,-0.46 -0.3,-0.57 -0.12,-0.11 -0.3,-0.16 -0.53,-0.16l-9.89 0 0 3.76 6.42 0c0.23,0 0.41,-0.06 0.53,-0.16 0.12,-0.11 0.23,-0.3 0.3,-0.57l0.38 0 0 3.99 -0.38 0c-0.08,-0.27 -0.18,-0.46 -0.3,-0.57 -0.12,-0.11 -0.3,-0.17 -0.53,-0.17l-6.42 0zm27.95 1.26l-3.92 0c-0.24,0 -0.42,0.06 -0.54,0.16 -0.12,0.11 -0.22,0.3 -0.3,0.57l-0.38 0 0 -3.69 0.38 0c0.08,0.29 0.17,0.48 0.3,0.58 0.12,0.1 0.3,0.15 0.54,0.15l7.51 0 0 0.38c-0.27,0.08 -0.46,0.18 -0.57,0.3 -0.11,0.12 -0.16,0.3 -0.16,0.55l0 3.25c0,0.24 0.05,0.42 0.16,0.55 0.11,0.12 0.3,0.22 0.58,0.3l0 0.29c-3.01,1.73 -5.93,2.59 -8.75,2.59 -2.56,0 -4.65,-0.61 -6.27,-1.83 -2.03,-1.53 -3.05,-3.67 -3.05,-6.4 0,-2.54 0.9,-4.56 2.71,-6.07 1.72,-1.43 4,-2.14 6.85,-2.14 0.9,0 1.76,0.08 2.56,0.25 0.8,0.17 1.71,0.44 2.73,0.84 0.53,0.21 0.9,0.31 1.12,0.31 0.16,0 0.35,-0.09 0.57,-0.27l0.33 0.17 -1.87 3.8 -0.34 -0.17c-0.01,-0.25 -0.04,-0.44 -0.1,-0.55 -0.06,-0.12 -0.2,-0.25 -0.42,-0.41 -0.47,-0.36 -1.16,-0.66 -2.08,-0.91 -0.91,-0.25 -1.78,-0.38 -2.59,-0.38 -1.66,0 -3.03,0.46 -4.12,1.39 -1.23,1.06 -1.85,2.45 -1.85,4.18 0,1.68 0.6,3.03 1.8,4.06 1.1,0.95 2.55,1.42 4.35,1.42 0.88,0 1.74,-0.1 2.6,-0.31 0.85,-0.2 1.59,-0.47 2.21,-0.83l0 -2.17zm10.5 -0.76l0 5.25c0,0.23 0.06,0.41 0.17,0.54 0.11,0.13 0.3,0.23 0.57,0.3l0 0.38 -4.95 0 0 -0.38c0.28,-0.08 0.47,-0.18 0.57,-0.3 0.11,-0.12 0.16,-0.3 0.16,-0.53l0 -13.41c0,-0.24 -0.06,-0.42 -0.16,-0.55 -0.11,-0.12 -0.3,-0.23 -0.57,-0.3l0 -0.38 9.92 0c1.21,0 2.17,0.07 2.88,0.21 0.71,0.14 1.33,0.38 1.86,0.73 0.61,0.4 1.07,0.95 1.37,1.64 0.29,0.67 0.43,1.38 0.43,2.14 0,2.59 -1.44,4.11 -4.31,4.55l3.08 4.36c0.54,0.76 0.93,1.26 1.19,1.48 0.25,0.22 0.56,0.34 0.92,0.36l0 0.38 -5.73 0 0 -0.38c0.39,-0.06 0.59,-0.2 0.59,-0.42 0,-0.14 -0.18,-0.48 -0.55,-1.01l-3.23 -4.66 -4.2 0zm0 -2.61l5.35 0c0.79,0 1.35,-0.02 1.67,-0.07 0.32,-0.04 0.63,-0.14 0.9,-0.29 0.59,-0.32 0.88,-0.89 0.88,-1.72 0,-0.83 -0.29,-1.4 -0.88,-1.72 -0.28,-0.15 -0.57,-0.25 -0.89,-0.3 -0.31,-0.04 -0.88,-0.06 -1.68,-0.06l-5.35 0 0 4.16zm15.75 7.85l0 -13.41c0,-0.23 -0.06,-0.41 -0.16,-0.54 -0.11,-0.12 -0.3,-0.23 -0.57,-0.3l0 -0.38 4.94 0 0 0.38c-0.28,0.07 -0.47,0.17 -0.57,0.3 -0.11,0.13 -0.16,0.31 -0.16,0.54l0 13.41c0,0.24 0.06,0.42 0.17,0.55 0.11,0.13 0.3,0.23 0.57,0.3l0 0.38 -4.94 0 0 -0.38c0.28,-0.08 0.47,-0.18 0.57,-0.3 0.11,-0.12 0.16,-0.31 0.16,-0.55zm15.37 -12.01l0 12.01c0,0.24 0.06,0.42 0.16,0.55 0.11,0.12 0.3,0.22 0.57,0.3l0 0.38 -4.95 0 0 -0.38c0.28,-0.08 0.47,-0.18 0.58,-0.3 0.11,-0.12 0.16,-0.31 0.16,-0.55l0 -12.01 -4.9 0c-0.23,0 -0.41,0.05 -0.53,0.16 -0.12,0.1 -0.23,0.3 -0.3,0.58l-0.38 0 0 -4.09 0.38 0c0.08,0.28 0.19,0.47 0.3,0.58 0.12,0.11 0.3,0.16 0.53,0.16l13.25 0c0.24,0 0.42,-0.05 0.54,-0.16 0.12,-0.11 0.23,-0.3 0.3,-0.58l0.38 0 0 4.09 -0.38 0c-0.08,-0.28 -0.18,-0.48 -0.3,-0.58 -0.12,-0.11 -0.31,-0.16 -0.54,-0.16l-4.89 0zm17.61 6.6l0 5.42c0,0.24 0.06,0.42 0.16,0.55 0.11,0.12 0.3,0.22 0.57,0.3l0 0.38 -4.94 0 0 -0.38c0.27,-0.08 0.46,-0.18 0.57,-0.3 0.11,-0.13 0.17,-0.31 0.17,-0.55l0 -5.42 -5.12 -7.2c-0.44,-0.62 -0.78,-1.03 -1.04,-1.24 -0.25,-0.21 -0.55,-0.34 -0.9,-0.39l0 -0.38 6.27 0 0 0.38c-0.52,0.08 -0.78,0.33 -0.78,0.72 0,0.14 0.16,0.44 0.48,0.92l2.85 4.26 2.95 -4.26c0.32,-0.46 0.48,-0.76 0.48,-0.93 0,-0.17 -0.07,-0.33 -0.21,-0.46 -0.14,-0.13 -0.33,-0.21 -0.57,-0.25l0 -0.38 6.12 0 0 0.38c-0.35,0.05 -0.65,0.18 -0.9,0.39 -0.25,0.21 -0.6,0.63 -1.04,1.24l-5.12 7.2z"/>
   <g>
    <g>
     <polygon class="fil1 str1" points="177.03,22.22 187.94,22.22 187.94,104.95 182.48,104.95 "/>
     <path class="fil1 str1" d="M203.46 1.54l39.36 0 -7.55 9.78 -26.34 59.01c-0.4,-15.91 0.52,-37.23 -0.39,-57.74 -0.19,-4.38 -2.64,-8.03 -5.07,-11.05z"/>
     <polygon class="fil1 str1" points="256.29,1.54 282.88,1.54 257.37,68.69 "/>
     <polygon class="fil1 str1" points="235.28,48.23 238.4,104.95 211.54,104.95 "/>
     <polygon class="fil1 str1" points="288.34,30.34 288.34,104.95 258.32,104.95 "/>
     <path class="fil2" d="M330.49 81.21c55.4,-8.18 90.56,-81.21 31.03,-81.21l-54.9 0 -10.25 18.35 65.16 0c16.55,4.57 8,38.27 -24.01,46.89l8.63 -35.66 -19.29 -0.07 -21.72 75.45 18.62 0 6.75 -23.74z"/>
    </g>
    <g>
     <path class="fil3" d="M401.97 102.95l0 -4.64c0,-0.12 -0.03,-0.2 -0.08,-0.26 -0.05,-0.06 -0.14,-0.11 -0.27,-0.14l0 -0.18 1.95 0 0 0.18c-0.13,0.04 -0.22,0.08 -0.27,0.14 -0.05,0.06 -0.08,0.15 -0.08,0.26l0 6.64 -0.18 0c-0.04,-0.13 -0.08,-0.22 -0.14,-0.27 -0.06,-0.05 -0.15,-0.08 -0.26,-0.08l-6.39 0c-0.11,0 -0.2,0.03 -0.26,0.08 -0.06,0.05 -0.11,0.14 -0.14,0.27l-0.18 0 0 -2.36 0.18 0c0.03,0.13 0.08,0.22 0.14,0.27 0.06,0.05 0.15,0.08 0.26,0.08l5.72 0zm-0.69 -11.93l0 3.41 1.07 0.51c0.15,0.07 0.26,0.11 0.35,0.11 0.16,0 0.28,-0.12 0.34,-0.37l0.18 0 0 2.5 -0.18 0c-0.03,-0.15 -0.08,-0.26 -0.15,-0.34 -0.07,-0.08 -0.22,-0.17 -0.43,-0.26l-5.8 -2.78c-0.19,-0.09 -0.33,-0.13 -0.44,-0.13 -0.17,0 -0.29,0.11 -0.36,0.32l-0.18 0 0 -2.68 0.18 0c0.06,0.22 0.17,0.33 0.33,0.33 0.11,0 0.23,-0.03 0.36,-0.1l5.82 -2.87c0.25,-0.12 0.41,-0.23 0.51,-0.32 0.09,-0.09 0.15,-0.21 0.18,-0.37l0.18 0 0 2.79 -0.18 0c-0.04,-0.24 -0.15,-0.36 -0.34,-0.36 -0.08,0 -0.19,0.04 -0.34,0.11l-1.07 0.53zm-1.03 0.47l-2.67 1.21 2.67 1.23 0 -2.45zm-2.35 -9.15l4.36 1.73c0.22,0.1 0.36,0.15 0.42,0.15 0.17,0 0.29,-0.14 0.36,-0.41l0.18 0 0 2.43 -0.18 0c-0.05,-0.25 -0.17,-0.37 -0.38,-0.37 -0.05,0 -0.22,0.05 -0.49,0.15l-5.57 2.16c-0.28,0.11 -0.46,0.2 -0.56,0.29 -0.1,0.09 -0.16,0.21 -0.2,0.38l-0.18 0 0 -2.62 0.18 0c0.05,0.23 0.16,0.35 0.33,0.35 0.08,0 0.21,-0.03 0.36,-0.09l3.99 -1.5 -4.01 -1.62c-0.17,-0.07 -0.29,-0.11 -0.34,-0.11 -0.17,0 -0.28,0.12 -0.33,0.37l-0.18 0 0 -2.75 0.18 0c0.07,0.25 0.19,0.38 0.36,0.38 0.06,0 0.17,-0.03 0.33,-0.09l3.99 -1.53 -3.92 -1.49c-0.19,-0.08 -0.34,-0.12 -0.44,-0.12 -0.16,0 -0.27,0.13 -0.32,0.4l-0.18 0 0 -2.59 0.18 0c0.05,0.19 0.12,0.31 0.2,0.38 0.08,0.07 0.27,0.16 0.56,0.28l5.57 2.16c0.27,0.1 0.44,0.15 0.53,0.15 0.18,0 0.29,-0.13 0.34,-0.39l0.18 0 0 2.46 -0.18 0c-0.04,-0.26 -0.16,-0.39 -0.37,-0.39 -0.07,0 -0.24,0.06 -0.5,0.17l-4.27 1.66z"/>
     <path class="fil4" d="M399.91 73.27l2.72 0c0.11,0 0.2,-0.03 0.26,-0.08 0.06,-0.05 0.11,-0.14 0.14,-0.27l0.18 0 0 2.36 -0.18 0c-0.04,-0.13 -0.08,-0.22 -0.14,-0.27 -0.06,-0.05 -0.15,-0.08 -0.26,-0.08l-6.39 0c-0.11,0 -0.2,0.03 -0.26,0.08 -0.06,0.05 -0.11,0.14 -0.14,0.27l-0.18 0 0 -6.68c0,-0.11 -0.02,-0.2 -0.08,-0.26 -0.05,-0.06 -0.14,-0.11 -0.28,-0.14l0 -0.18 1.95 0 0 0.18c-0.13,0.04 -0.23,0.09 -0.28,0.14 -0.05,0.06 -0.07,0.14 -0.07,0.26l0 4.68 1.8 0 0 -3.05c0,-0.11 -0.03,-0.2 -0.08,-0.26 -0.05,-0.06 -0.14,-0.11 -0.27,-0.14l0 -0.18 1.9 0 0 0.18c-0.13,0.04 -0.22,0.08 -0.27,0.14 -0.05,0.06 -0.08,0.15 -0.08,0.26l0 3.05zm2.72 -6.59l-6.39 0c-0.11,0 -0.2,0.03 -0.26,0.08 -0.06,0.05 -0.11,0.14 -0.14,0.27l-0.18 0 0 -2.36 0.18 0c0.03,0.13 0.08,0.22 0.14,0.27 0.06,0.05 0.14,0.08 0.26,0.08l6.39 0c0.11,0 0.2,-0.03 0.26,-0.08 0.06,-0.05 0.11,-0.14 0.14,-0.27l0.18 0 0 2.36 -0.18 0c-0.04,-0.13 -0.08,-0.22 -0.14,-0.27 -0.06,-0.05 -0.15,-0.08 -0.26,-0.08zm-2.5 -5.37l2.5 0c0.11,0 0.2,-0.03 0.26,-0.08 0.06,-0.05 0.11,-0.14 0.14,-0.27l0.18 0 0 2.36 -0.18 0c-0.04,-0.13 -0.08,-0.22 -0.14,-0.27 -0.06,-0.05 -0.14,-0.08 -0.25,-0.08l-6.39 0c-0.11,0 -0.2,0.03 -0.26,0.08 -0.06,0.05 -0.11,0.14 -0.14,0.27l-0.18 0 0 -4.73c0,-0.58 0.03,-1.03 0.1,-1.37 0.07,-0.34 0.18,-0.63 0.35,-0.88 0.19,-0.29 0.45,-0.51 0.78,-0.65 0.32,-0.14 0.66,-0.2 1.02,-0.2 1.24,0 1.96,0.69 2.17,2.05l2.08 -1.47c0.36,-0.26 0.6,-0.45 0.7,-0.57 0.1,-0.12 0.16,-0.27 0.17,-0.44l0.18 0 0 2.73 -0.18 0c-0.03,-0.19 -0.1,-0.28 -0.2,-0.28 -0.07,0 -0.23,0.09 -0.48,0.26l-2.22 1.54 0 2zm-1.25 0l0 -2.55c0,-0.38 -0.01,-0.64 -0.03,-0.8 -0.02,-0.15 -0.07,-0.3 -0.14,-0.43 -0.15,-0.28 -0.42,-0.42 -0.82,-0.42 -0.4,0 -0.67,0.14 -0.82,0.42 -0.07,0.13 -0.12,0.27 -0.14,0.42 -0.02,0.15 -0.03,0.42 -0.03,0.8l0 2.55 1.98 0zm4.33 -11.79l-5.22 2.78 4.64 0c0.11,0 0.2,-0.03 0.26,-0.08 0.06,-0.05 0.11,-0.14 0.14,-0.27l0.18 0 0 2.21 -0.18 0c-0.04,-0.13 -0.08,-0.22 -0.14,-0.27 -0.06,-0.05 -0.15,-0.08 -0.26,-0.08l-6.39 0c-0.11,0 -0.2,0.03 -0.26,0.08 -0.06,0.05 -0.11,0.14 -0.14,0.27l-0.18 0 0 -2.9 0.18 0c0.04,0.17 0.14,0.26 0.3,0.26 0.07,0 0.16,-0.03 0.25,-0.08l3.89 -2.05 -3.82 -2.08c-0.17,-0.09 -0.29,-0.14 -0.37,-0.14 -0.15,0 -0.24,0.09 -0.25,0.28l-0.18 0 0 -2.85 0.18 0c0.04,0.13 0.08,0.22 0.14,0.27 0.06,0.05 0.14,0.08 0.26,0.08l6.39 0c0.11,0 0.2,-0.03 0.26,-0.08 0.06,-0.05 0.11,-0.14 0.14,-0.27l0.18 0 0 2.36 -0.18 0c-0.03,-0.13 -0.08,-0.22 -0.14,-0.27 -0.06,-0.05 -0.15,-0.08 -0.26,-0.08l-4.64 0 5.22 2.93z"/>
    </g>
   </g>
  </g>
 </g>
</svg>
